<svg width="231" height="35" viewBox="0 0 231 35" fill="none" xmlns="http://www.w3.org/2000/svg">
<path d="M21.0037 1.06821C20.9406 1.25754 20.7513 1.38252 20.531 1.35159C20.3417 1.28848 20.2167 1.10038 20.2476 0.880114C20.3107 0.692019 20.5001 0.565798 20.7203 0.596734C20.9097 0.659845 21.0346 0.849177 21.0037 1.06821Z" fill="black"/>
<mask id="mask0_4_15" style="mask-type:luminance" maskUnits="userSpaceOnUse" x="16" y="0" width="2" height="2">
<path d="M16.3147 0H17.5819V1.15208H16.3147V0Z" fill="white"/>
</mask>
<g mask="url(#mask0_4_15)">
<path d="M17.4441 0.597227C17.381 0.84967 17.1286 0.974654 16.9083 0.911543C16.6571 0.84967 16.5309 0.597227 16.594 0.378196C16.6571 0.12699 16.9083 0.000768766 17.1286 0.0638796C17.381 0.12699 17.5072 0.378196 17.4441 0.597227Z" fill="black"/>
</g>
<path d="M14.0117 0.943175C13.9486 1.22532 13.6652 1.38247 13.4128 1.31936C13.1294 1.25749 12.9722 0.974111 13.0353 0.722906C13.0984 0.440764 13.3818 0.283605 13.633 0.345479C13.9164 0.40859 14.0748 0.691969 14.0117 0.943175Z" fill="black"/>
<path d="M10.7994 2.04184C10.7363 2.35616 10.4208 2.51332 10.1065 2.45021C9.7909 2.38833 9.63374 2.07402 9.69685 1.7597C9.75997 1.44539 10.0743 1.28823 10.3898 1.35134C10.6732 1.44539 10.8613 1.7597 10.7994 2.04184Z" fill="black"/>
<path d="M7.90117 3.83279C7.80712 4.17928 7.49157 4.36737 7.14508 4.27333C6.79859 4.17928 6.61049 3.86496 6.70454 3.51971C6.79859 3.17322 7.11414 2.98513 7.46063 3.07917C7.77495 3.14228 7.96428 3.48754 7.90117 3.83279Z" fill="black"/>
<path d="M5.44478 6.22067C5.3495 6.5981 4.97207 6.81713 4.62558 6.72308C4.24815 6.62904 4.02664 6.25161 4.12193 5.90636C4.21598 5.52893 4.59464 5.3099 4.94113 5.40395C5.28762 5.49799 5.53883 5.84325 5.44478 6.22067Z" fill="black"/>
<path d="M3.55509 9.14239C3.4598 9.55076 3.0502 9.77103 2.64184 9.67698C2.23224 9.58293 2.01197 9.17457 2.10602 8.76497C2.20006 8.3566 2.60966 8.13757 3.01927 8.23162C3.39669 8.32567 3.64914 8.73403 3.55509 9.14239Z" fill="black"/>
<path d="M2.32606 12.5353C2.23201 12.9759 1.79023 13.2271 1.3497 13.1318C0.909158 13.0377 0.656715 12.5984 0.750762 12.1579C0.846047 11.7186 1.28658 11.4674 1.72712 11.5614C2.1689 11.6555 2.4201 12.096 2.32606 12.5353Z" fill="black"/>
<mask id="mask1_4_15" style="mask-type:luminance" maskUnits="userSpaceOnUse" x="0" y="14" width="3" height="3">
<path d="M0 14.7745H2.05914V16.9921H0V14.7745Z" fill="white"/>
</mask>
<g mask="url(#mask1_4_15)">
<path d="M1.88559 16.1494C1.75937 16.6209 1.28665 16.9031 0.813943 16.7781C0.342469 16.6519 0.0590893 16.1804 0.184073 15.7089C0.310295 15.2374 0.783006 14.9553 1.25572 15.0815C1.72719 15.2065 2.01181 15.678 1.88559 16.1494Z" fill="black"/>
</g>
<path d="M2.29544 19.6364C2.16922 20.1388 1.66557 20.4222 1.16068 20.296C0.657033 20.1697 0.373654 19.6673 0.499875 19.1649C0.626096 18.6625 1.12974 18.3791 1.63339 18.5053C2.10611 18.6625 2.42042 19.1649 2.29544 19.6364Z" fill="black"/>
<path d="M3.42885 22.9353C3.30263 23.4686 2.76681 23.7829 2.23222 23.658C1.6964 23.5317 1.38208 22.9972 1.50707 22.4638C1.63329 21.9292 2.16911 21.6149 2.7037 21.7411C3.23952 21.8661 3.58601 22.4007 3.42885 22.9353Z" fill="black"/>
<path d="M5.25562 25.9193C5.09846 26.4849 4.5317 26.8301 3.96494 26.673C3.39695 26.5158 3.05046 25.9503 3.20885 25.3848C3.36601 24.8192 3.93277 24.474 4.49953 24.6311C5.06629 24.7561 5.41278 25.3538 5.25562 25.9193Z" fill="black"/>
<path d="M7.71176 28.4332C7.5546 29.0297 6.95566 29.3749 6.35797 29.25C5.75904 29.0928 5.41255 28.4951 5.53877 27.8987C5.69593 27.3022 6.29486 26.9557 6.89379 27.0819C7.49149 27.2391 7.83798 27.8355 7.71176 28.4332Z" fill="black"/>
<path d="M10.6733 30.3813C10.5161 31.0087 9.885 31.3861 9.25513 31.2289C8.62526 31.0718 8.24783 30.4431 8.40499 29.8158C8.56338 29.1871 9.19325 28.8097 9.82312 28.9669C10.453 29.124 10.8304 29.7526 10.6733 30.3813Z" fill="black"/>
<path d="M14.1369 31.7C13.9797 32.3595 13.2867 32.7679 12.6259 32.5798C11.9639 32.4226 11.5543 31.7309 11.7436 31.0713C11.9008 30.4117 12.5938 30.0034 13.2558 30.1915C13.8857 30.3486 14.2953 31.0404 14.1369 31.7Z" fill="black"/>
<path d="M17.791 32.1716C17.6016 32.8621 16.9087 33.2705 16.2157 33.1133C15.5227 32.9252 15.1131 32.2347 15.2715 31.543C15.4596 30.8525 16.1526 30.4429 16.8455 30.6C17.5385 30.7893 17.9803 31.4799 17.791 32.1716Z" fill="black"/>
<path d="M21.3501 31.8573C21.1608 32.58 20.4369 33.0193 19.7117 32.8312C18.9878 32.6431 18.5472 31.9204 18.7353 31.1978C18.9247 30.4751 19.6498 30.0345 20.3737 30.2239C21.0977 30.412 21.5394 31.1347 21.3501 31.8573Z" fill="black"/>
<path d="M24.689 30.7894C24.4996 31.543 23.7126 32.0145 22.9565 31.8264C22.2004 31.6371 21.7277 30.8525 21.917 30.0977C22.1064 29.3441 22.8934 28.8726 23.6495 29.0607C24.4365 29.25 24.8783 30.0346 24.689 30.7894Z" fill="black"/>
<path d="M27.7116 29.0608C27.5223 29.8465 26.7043 30.318 25.9161 30.1299C25.129 29.9406 24.6563 29.1239 24.8456 28.3381C25.035 27.5535 25.8542 27.0821 26.6412 27.2701C27.4282 27.4595 27.9009 28.244 27.7116 29.0608Z" fill="black"/>
<path d="M30.2633 26.7045C30.043 27.5213 29.2238 28.0249 28.4046 27.8046C27.5854 27.5844 27.0818 26.7676 27.3021 25.9509C27.5223 25.1342 28.3415 24.6318 29.1607 24.8508C29.9799 25.0401 30.4836 25.8569 30.2633 26.7045Z" fill="black"/>
<path d="M32.2791 23.7829C32.0588 24.6318 31.1765 25.1651 30.3264 24.9449C29.4762 24.7258 28.9404 23.846 29.1607 22.9971C29.3809 22.1494 30.2633 21.6148 31.1134 21.8351C31.9957 22.0554 32.4994 22.9352 32.2791 23.7829Z" fill="black"/>
<path d="M33.633 20.4218C33.4128 21.3004 32.4995 21.835 31.6172 21.6148C30.7361 21.3957 30.2003 20.4837 30.4206 19.6039C30.6408 18.7253 31.5541 18.1907 32.4364 18.411C33.3187 18.63 33.8533 19.542 33.633 20.4218Z" fill="black"/>
<path d="M18.8613 3.70781C18.8304 3.86497 18.6732 3.95902 18.5148 3.89591C18.3577 3.86497 18.2636 3.70781 18.3267 3.55065C18.3577 3.3935 18.5148 3.29945 18.6732 3.36256C18.7982 3.3935 18.8935 3.55065 18.8613 3.70781Z" fill="black"/>
<path d="M16.3111 3.36186C16.2789 3.51902 16.0896 3.644 15.9324 3.58089C15.7753 3.54996 15.649 3.36186 15.7122 3.2047C15.7443 3.04755 15.9324 2.92132 16.0896 2.98443C16.248 3.01537 16.342 3.2047 16.3111 3.36186Z" fill="black"/>
<path d="M13.8224 3.61304C13.7593 3.80114 13.57 3.92736 13.3819 3.86425C13.1926 3.80114 13.0663 3.61304 13.1295 3.42371C13.1926 3.23561 13.3819 3.11063 13.57 3.1725C13.7593 3.23561 13.8855 3.42371 13.8224 3.61304Z" fill="black"/>
<path d="M11.4923 4.43005C11.4291 4.65031 11.2076 4.7753 10.9874 4.71219C10.7671 4.65031 10.6409 4.43005 10.704 4.20978C10.7671 3.98951 10.9874 3.86452 11.2076 3.92763C11.4291 3.98951 11.5541 4.20978 11.4923 4.43005Z" fill="black"/>
<path d="M9.41344 5.68594C9.35033 5.93838 9.09788 6.06337 8.87762 6.00026C8.62517 5.93838 8.50019 5.68594 8.5633 5.46691C8.62517 5.2157 8.87762 5.08948 9.09788 5.15259C9.31815 5.2157 9.44437 5.46691 9.41344 5.68594Z" fill="black"/>
<path d="M7.61766 7.41499C7.55455 7.66619 7.27117 7.85429 7.01873 7.76024C6.76752 7.69713 6.57819 7.41499 6.67224 7.16378C6.73535 6.91257 7.01873 6.72324 7.27117 6.81729C7.52362 6.8804 7.68077 7.16378 7.61766 7.41499Z" fill="black"/>
<path d="M6.26408 9.55066C6.20097 9.83404 5.88542 10.0221 5.60204 9.92809C5.31866 9.86498 5.12933 9.55066 5.22461 9.26852C5.28772 8.98514 5.60204 8.79705 5.88542 8.8911C6.13786 8.95421 6.32595 9.23635 6.26408 9.55066Z" fill="black"/>
<path d="M5.38139 12.0012C5.28735 12.3155 4.97179 12.5048 4.65624 12.4108C4.34192 12.3155 4.15259 12.0012 4.24788 11.6881C4.34192 11.3738 4.65624 11.1845 4.97179 11.2797C5.25517 11.3738 5.44451 11.6881 5.38139 12.0012Z" fill="black"/>
<path d="M5.06611 14.6093C4.97206 14.9545 4.62557 15.1426 4.31125 15.0486C3.96476 14.9545 3.77543 14.6093 3.86948 14.2949C3.96476 13.9497 4.31125 13.7604 4.62557 13.8544C4.94112 13.9175 5.16139 14.2628 5.06611 14.6093Z" fill="black"/>
<path d="M5.34957 17.1227C5.25552 17.468 4.87809 17.6883 4.5316 17.5942C4.18511 17.4989 3.96484 17.1227 4.05889 16.7775C4.15294 16.431 4.5316 16.212 4.87809 16.306C5.22458 16.4001 5.44485 16.7775 5.34957 17.1227Z" fill="black"/>
<path d="M6.16854 19.5101C6.07449 19.8875 5.69582 20.1387 5.28746 20.0447C4.9088 19.9506 4.65635 19.5732 4.75164 19.1648C4.84569 18.7874 5.22435 18.5362 5.63271 18.6302C6.04231 18.7255 6.26382 19.1339 6.16854 19.5101Z" fill="black"/>
<path d="M7.49167 21.6471C7.39762 22.0555 6.98802 22.3067 6.57842 22.2126C6.16882 22.1186 5.91761 21.709 6.01166 21.3006C6.10571 20.8922 6.51531 20.641 6.92491 20.7351C7.36544 20.8304 7.58695 21.2387 7.49167 21.6471Z" fill="black"/>
<path d="M9.25482 23.4691C9.16077 23.9097 8.72023 24.1609 8.27846 24.0668C7.83792 23.9715 7.58671 23.5322 7.68076 23.0929C7.77481 22.6524 8.21658 22.4012 8.65712 22.4952C9.09766 22.6215 9.38104 23.0608 9.25482 23.4691Z" fill="black"/>
<path d="M11.3968 24.8825C11.2706 25.3218 10.8301 25.6052 10.3574 25.5099C9.91683 25.3849 9.63345 24.9444 9.7275 24.4742C9.85372 24.0336 10.2943 23.7515 10.767 23.8455C11.2397 23.9705 11.5231 24.442 11.3968 24.8825Z" fill="black"/>
<path d="M13.9167 25.8249C13.7917 26.2964 13.319 26.5798 12.8463 26.4857C12.3736 26.3595 12.0902 25.888 12.1842 25.4165C12.3104 24.9463 12.7832 24.6629 13.2559 24.757C13.7286 24.851 14.012 25.3547 13.9167 25.8249Z" fill="black"/>
<path d="M16.5619 26.2024C16.4356 26.7048 15.932 27.0191 15.4283 26.8941C14.9247 26.7679 14.6091 26.2655 14.7354 25.7631C14.8616 25.2594 15.3652 24.9451 15.8689 25.0713C16.3738 25.1976 16.6881 25.7 16.5619 26.2024Z" fill="black"/>
<path d="M19.1138 25.9504C18.9876 26.485 18.4518 26.7981 17.9172 26.6731C17.3814 26.5469 17.0658 26.0135 17.192 25.479C17.3183 24.9456 17.8541 24.6313 18.3887 24.7563C18.9245 24.9134 19.24 25.448 19.1138 25.9504Z" fill="black"/>
<path d="M21.5391 25.1967C21.4129 25.7301 20.8462 26.0753 20.2794 25.9503C19.7436 25.8241 19.3971 25.2586 19.5233 24.6931C19.6495 24.1597 20.2163 23.8145 20.783 23.9394C21.3498 24.0966 21.6641 24.6312 21.5391 25.1967Z" fill="black"/>
<path d="M23.7125 23.9089C23.5554 24.4744 22.9874 24.8197 22.4206 24.6934C21.8538 24.5363 21.5074 23.9708 21.6336 23.4052C21.7907 22.8397 22.3575 22.4945 22.9255 22.6207C23.5232 22.7778 23.8697 23.3434 23.7125 23.9089Z" fill="black"/>
<path d="M25.5697 22.2124C25.4125 22.8089 24.8148 23.1542 24.2159 23.0292C23.6169 22.872 23.2705 22.2743 23.3967 21.6779C23.5551 21.0814 24.1528 20.7349 24.7517 20.8611C25.3494 21.0183 25.7281 21.6147 25.5697 22.2124Z" fill="black"/>
<path d="M27.0191 20.1381C26.862 20.7668 26.2321 21.143 25.6022 20.987C24.9723 20.8299 24.5937 20.2013 24.7521 19.5726C24.9092 18.944 25.5391 18.5678 26.169 18.725C26.7988 18.8821 27.1775 19.5095 27.0191 20.1381Z" fill="black"/>
<path d="M27.9952 17.6886C27.8381 18.3172 27.1773 18.7256 26.5462 18.5684C25.9163 18.4113 25.5079 17.7517 25.6651 17.1231C25.8222 16.4945 26.4843 16.0861 27.1142 16.2432C27.775 16.4004 28.1536 17.06 27.9952 17.6886Z" fill="black"/>
<mask id="mask2_4_15" style="mask-type:luminance" maskUnits="userSpaceOnUse" x="29" y="33" width="2" height="2">
<path d="M29.9373 33.1484H30.8876V34.2138H29.9373V33.1484Z" fill="white"/>
</mask>
<g mask="url(#mask2_4_15)">
<path d="M29.9807 33.8056C29.9807 33.5853 30.1688 33.4282 30.3903 33.4282C30.6106 33.4282 30.7677 33.6175 30.7677 33.8365C30.7677 34.0568 30.5784 34.214 30.3581 34.214C30.1379 34.183 29.9807 33.9937 29.9807 33.8056Z" fill="black"/>
</g>
<path d="M33.5391 33.4906C33.5391 33.2394 33.7593 33.0513 34.0118 33.0513C34.263 33.0513 34.4523 33.2704 34.4523 33.5228C34.4523 33.774 34.232 33.9621 33.9796 33.9621C33.7272 33.9621 33.5391 33.7418 33.5391 33.4906Z" fill="black"/>
<path d="M36.8147 32.4229C36.8147 32.1396 37.0659 31.9205 37.3493 31.9515C37.6339 31.9515 37.8542 32.2027 37.822 32.486C37.822 32.7682 37.5708 32.9885 37.2874 32.9575C37.035 32.9575 36.8147 32.7051 36.8147 32.4229Z" fill="black"/>
<path d="M39.7434 30.6953C39.7434 30.381 40.0268 30.1298 40.3411 30.1607C40.6567 30.1916 40.9091 30.4428 40.8769 30.7572C40.8769 31.0715 40.5935 31.3227 40.278 31.2917C39.9946 31.2608 39.7434 31.0084 39.7434 30.6953Z" fill="black"/>
<path d="M42.2002 28.3383C42.2002 27.9931 42.5157 27.711 42.8622 27.7419C43.2075 27.7419 43.4921 28.0562 43.4599 28.4015C43.4599 28.7479 43.1456 29.0301 42.7991 28.9992C42.4526 28.967 42.2002 28.6848 42.2002 28.3383Z" fill="black"/>
<path d="M44.0898 25.4791C44.0898 25.1017 44.4363 24.8195 44.815 24.8195C45.1924 24.8195 45.4758 25.1338 45.4758 25.5422C45.4758 25.9196 45.1603 26.2018 44.7519 26.2018C44.3732 26.1708 44.0898 25.8565 44.0898 25.4791Z" fill="black"/>
<path d="M45.3186 22.2129C45.3186 21.8046 45.6651 21.4902 46.1056 21.4902C46.5152 21.4902 46.8295 21.8355 46.8295 22.2748C46.8295 22.6844 46.4831 22.9975 46.0425 22.9975C45.6329 22.9975 45.3186 22.6522 45.3186 22.2129Z" fill="black"/>
<mask id="mask3_4_15" style="mask-type:luminance" maskUnits="userSpaceOnUse" x="45" y="17" width="3" height="3">
<path d="M45.7759 17.6259H47.5182V19.5267H45.7759V17.6259Z" fill="white"/>
</mask>
<g mask="url(#mask3_4_15)">
<path d="M45.8222 18.631C45.8222 18.1917 46.1997 17.8464 46.6724 17.8464C47.1129 17.8464 47.4594 18.2226 47.4594 18.6941C47.4594 19.1346 47.082 19.4799 46.6093 19.4799C46.1366 19.4489 45.7913 19.1024 45.8222 18.631Z" fill="black"/>
</g>
<path d="M45.4448 15.0487C45.4758 14.5772 45.8532 14.201 46.3581 14.201C46.8295 14.232 47.2082 14.6094 47.2082 15.1118C47.176 15.5833 46.7986 15.9595 46.295 15.9595C45.8223 15.9286 45.4448 15.5202 45.4448 15.0487Z" fill="black"/>
<path d="M44.3421 11.6882C44.373 11.1845 44.7826 10.7762 45.3185 10.7762C45.8221 10.8083 46.2317 11.2167 46.2317 11.75C46.1995 12.2537 45.7912 12.6621 45.2554 12.6621C44.7195 12.6299 44.3099 12.1906 44.3421 11.6882Z" fill="black"/>
<path d="M42.5153 8.70331C42.5463 8.16872 42.9868 7.72942 43.5536 7.76036C44.0894 7.7913 44.5299 8.23183 44.499 8.79736C44.468 9.3307 44.0263 9.77124 43.4595 9.7403C42.9237 9.70813 42.4832 9.26883 42.5153 8.70331Z" fill="black"/>
<path d="M40.0901 6.18926C40.121 5.62374 40.5937 5.15227 41.1927 5.1832C41.7904 5.21538 42.2309 5.68561 42.2 6.28331C42.169 6.84883 41.6963 7.32031 41.0974 7.28813C40.5306 7.2572 40.0901 6.78572 40.0901 6.18926Z" fill="black"/>
<path d="M37.1916 4.24139C37.2238 3.61275 37.7274 3.14128 38.3573 3.17222C38.9872 3.20439 39.4599 3.7068 39.4277 4.33543C39.3968 4.96283 38.8931 5.4343 38.2633 5.40337C37.6334 5.37243 37.1607 4.86878 37.1916 4.24139Z" fill="black"/>
<path d="M33.8536 2.95398C33.8857 2.29317 34.4203 1.79076 35.0824 1.82293C35.7432 1.85387 36.2481 2.38846 36.2159 3.04803C36.185 3.70759 35.6491 4.21001 34.9883 4.17907C34.3585 4.14689 33.8226 3.61355 33.8536 2.95398Z" fill="black"/>
<path d="M30.2001 2.41898C30.231 1.72723 30.7978 1.19388 31.4908 1.22482C32.1838 1.257 32.7196 1.82252 32.6886 2.51302C32.6565 3.20477 32.0897 3.73811 31.3967 3.70718C30.7038 3.67624 30.1679 3.11072 30.2001 2.41898Z" fill="black"/>
<path d="M26.5151 2.70133C26.5461 1.97989 27.145 1.41437 27.8689 1.4453C28.5941 1.47624 29.1608 2.07394 29.1299 2.79662C29.0977 3.51929 28.4988 4.08482 27.7749 4.05264C27.051 4.02171 26.5151 3.42401 26.5151 2.70133Z" fill="black"/>
<path d="M23.1132 3.77078C23.1454 3.01593 23.7753 2.45041 24.5313 2.45041C25.2862 2.48258 25.8542 3.11122 25.8542 3.86483C25.822 4.61845 25.1922 5.18397 24.4361 5.18397C23.68 5.15303 23.0823 4.5244 23.1132 3.77078Z" fill="black"/>
<path d="M20.0906 5.52919C20.1215 4.74464 20.7836 4.14694 21.5706 4.14694C22.3576 4.17912 22.9566 4.83869 22.9566 5.62448C22.9256 6.40903 22.2636 7.00672 21.4766 7.00672C20.6574 6.94361 20.0584 6.31498 20.0906 5.52919Z" fill="black"/>
<path d="M17.5075 7.85406C17.5385 7.03734 18.2314 6.40871 19.0506 6.44088C19.8698 6.47182 20.4997 7.16356 20.4675 7.98029C20.4366 8.79701 19.7436 9.42565 18.9244 9.39347C18.1052 9.36253 17.4754 8.67079 17.5075 7.85406Z" fill="black"/>
<path d="M15.4918 10.7142C15.5228 9.8653 16.2479 9.20573 17.0981 9.23667C17.9482 9.26885 18.6103 9.99153 18.5781 10.8392C18.5471 11.6881 17.822 12.3477 16.9719 12.3155C16.1217 12.2845 15.4597 11.5619 15.4918 10.7142Z" fill="black"/>
<path d="M14.1367 13.9803C14.1689 13.1005 14.925 12.41 15.8061 12.4409C16.6884 12.4719 17.3814 13.2267 17.3504 14.1053C17.3183 14.9852 16.5622 15.6769 15.6811 15.646C14.7988 15.5829 14.1058 14.8602 14.1367 13.9803Z" fill="black"/>
<path d="M13.5391 17.5312C13.5701 16.6204 14.3261 15.8978 15.2716 15.9287C16.1848 15.9596 16.9087 16.7145 16.8778 17.6562C16.8456 18.5682 16.0895 19.2909 15.1453 19.2587C14.2321 19.2278 13.5069 18.4729 13.5391 17.5312Z" fill="black"/>
<path d="M31.5229 30.757C31.5229 30.5999 31.6491 30.4749 31.8062 30.5058C31.9634 30.5058 32.0896 30.6321 32.0587 30.7892C32.0587 30.9464 31.9325 31.0714 31.7741 31.0404C31.6169 31.0404 31.4907 30.9142 31.5229 30.757Z" fill="black"/>
<path d="M34.0735 30.5697C34.0735 30.3816 34.2319 30.2554 34.42 30.2554C34.6093 30.2554 34.7355 30.4126 34.7355 30.6007C34.7355 30.79 34.5784 30.915 34.42 30.915C34.1997 30.884 34.0735 30.7269 34.0735 30.5697Z" fill="black"/>
<path d="M36.4683 29.783C36.4683 29.5949 36.6576 29.4377 36.8457 29.4377C37.035 29.4377 37.1922 29.6258 37.1922 29.8152C37.1922 30.0033 37.0029 30.1604 36.8148 30.1604C36.5945 30.1604 36.4361 30.0033 36.4683 29.783Z" fill="black"/>
<path d="M38.5783 28.527C38.5783 28.3067 38.7676 28.1186 38.9879 28.1186C39.2082 28.1186 39.3975 28.3067 39.3975 28.527C39.3975 28.746 39.2082 28.9353 38.9879 28.9353C38.7354 28.9353 38.5473 28.746 38.5783 28.527Z" fill="black"/>
<path d="M40.3413 26.8308C40.3413 26.5796 40.5628 26.3902 40.814 26.3902C41.0665 26.3902 41.2546 26.6105 41.2546 26.8617C41.2546 27.1129 41.0343 27.3022 40.7831 27.3022C40.5306 27.2701 40.3413 27.082 40.3413 26.8308Z" fill="black"/>
<path d="M41.696 24.7572C41.696 24.475 41.9473 24.2548 42.1997 24.2857C42.4831 24.2857 42.7033 24.5369 42.6724 24.7894C42.6724 25.0715 42.42 25.2918 42.1688 25.2596C41.9163 25.2596 41.696 25.0406 41.696 24.7572Z" fill="black"/>
<path d="M42.6097 22.4013C42.6097 22.1192 42.8621 21.8668 43.1765 21.8668C43.4598 21.8668 43.7123 22.1192 43.7123 22.4323C43.7123 22.7157 43.4598 22.9669 43.1455 22.9669C42.83 22.9669 42.5775 22.7157 42.6097 22.4013Z" fill="black"/>
<path d="M42.9564 19.8242C42.9564 19.5099 43.2398 19.2587 43.5541 19.2587C43.8696 19.2587 44.1221 19.5421 44.1221 19.8564C44.1221 20.1695 43.8387 20.4219 43.5231 20.4219C43.1766 20.4219 42.9242 20.1385 42.9564 19.8242Z" fill="black"/>
<path d="M42.7035 17.2169C42.7035 16.8716 43.019 16.5882 43.3655 16.6204C43.712 16.6204 43.9954 16.9335 43.9632 17.28C43.9632 17.6252 43.6489 17.9074 43.3024 17.8764C42.9559 17.8455 42.6725 17.5621 42.7035 17.2169Z" fill="black"/>
<path d="M41.8855 14.7977C41.8855 14.4203 42.1999 14.1382 42.5773 14.1382C42.956 14.1382 43.2393 14.4525 43.2393 14.8287C43.2393 15.2061 42.9238 15.4895 42.5463 15.4895C42.1367 15.4895 41.8534 15.1751 41.8855 14.7977Z" fill="black"/>
<path d="M40.5627 12.6621C40.5627 12.2537 40.9092 11.9703 41.3176 11.9703C41.7272 11.9703 42.0106 12.3156 42.0106 12.724C42.0106 13.1323 41.6641 13.4157 41.2545 13.4157C40.8461 13.3848 40.5627 13.0383 40.5627 12.6621Z" fill="black"/>
<path d="M38.8307 10.8391C38.8307 10.4307 39.2081 10.0855 39.6177 10.1164C40.0273 10.1164 40.3738 10.4938 40.3416 10.9022C40.3416 11.3106 39.9642 11.6558 39.5546 11.6249C39.145 11.5927 38.7985 11.2474 38.8307 10.8391Z" fill="black"/>
<path d="M36.7192 9.42599C36.7192 8.98545 37.0979 8.6402 37.5384 8.6402C37.9789 8.6402 38.3254 9.01762 38.3254 9.45692C38.3254 9.89622 37.948 10.2427 37.5075 10.2427C37.0348 10.2427 36.6883 9.86529 36.7192 9.42599Z" fill="black"/>
<path d="M34.2954 8.4827C34.3263 8.01123 34.7038 7.6338 35.1765 7.66598C35.6492 7.69691 36.0266 8.07434 35.9957 8.54582C35.9957 9.01729 35.5861 9.39348 35.1134 9.36254C34.6728 9.33037 34.2954 8.95418 34.2954 8.4827Z" fill="black"/>
<path d="M31.6802 8.10522C31.7124 7.60281 32.1208 7.22538 32.5935 7.25756C33.0971 7.2885 33.4758 7.69686 33.4436 8.16833C33.4127 8.67074 33.0031 9.04817 32.5304 9.01723C32.0267 8.98506 31.6493 8.5767 31.6802 8.10522Z" fill="black"/>
<path d="M29.0037 8.29513C29.0346 7.79148 29.4442 7.38312 29.98 7.38312C30.4837 7.41529 30.8933 7.82366 30.8933 8.357C30.8611 8.86065 30.4527 9.26901 29.9169 9.26901C29.4133 9.23684 29.0037 8.82848 29.0037 8.29513Z" fill="black"/>
<path d="M26.546 9.07957C26.5781 8.54622 27.0187 8.10568 27.5545 8.13786C28.0903 8.16879 28.5309 8.60933 28.4987 9.14268C28.4678 9.67726 28.0272 10.1166 27.4914 10.0856C26.9556 10.0535 26.515 9.61415 26.546 9.07957Z" fill="black"/>
<path d="M24.3423 10.3361C24.3732 9.77058 24.8459 9.33005 25.4127 9.36222C25.9795 9.39316 26.4212 9.86463 26.3891 10.4302C26.3581 10.9957 25.8854 11.435 25.3186 11.404C24.7828 11.3731 24.3423 10.9016 24.3423 10.3361Z" fill="black"/>
<path d="M22.4834 12.0328C22.5155 11.4351 22.987 10.9958 23.586 10.9958C24.1849 11.0268 24.6254 11.4983 24.6254 12.096C24.5932 12.6924 24.1218 13.1317 23.5228 13.1317C22.9251 13.1008 22.4524 12.6293 22.4834 12.0328Z" fill="black"/>
<path d="M21.0346 14.0754C21.0668 13.4468 21.5705 12.9765 22.2003 13.0075C22.8302 13.0384 23.3029 13.542 23.2707 14.1694C23.2398 14.7981 22.7362 15.2695 22.1063 15.2374C21.4764 15.2064 21.0037 14.704 21.0346 14.0754Z" fill="black"/>
<path d="M20.058 16.4307C20.0902 15.802 20.626 15.2996 21.2559 15.2996C21.8857 15.3318 22.3894 15.8651 22.3894 16.4938C22.3572 17.1224 21.8226 17.6248 21.1927 17.6248C20.5307 17.6248 20.0271 17.0902 20.058 16.4307Z" fill="black"/>
<path d="M19.6177 19.0383C19.6499 18.3787 20.1845 17.8453 20.8465 17.8763C21.5073 17.9072 22.0432 18.4418 22.011 19.1014C21.9801 19.7609 21.4442 20.2955 20.7834 20.2646C20.1214 20.2324 19.5868 19.6991 19.6177 19.0383Z" fill="black"/>
<path d="M66.1328 30.2803C64.293 30.2803 62.6684 29.9629 61.2482 29.3335C59.8387 28.7041 58.7305 27.8004 57.9128 26.6222C57.1059 25.4333 56.697 23.9916 56.6863 22.297H61.5064C61.5602 23.459 61.9852 24.4435 62.776 25.245C63.5775 26.052 64.6804 26.4501 66.0898 26.4501C67.3056 26.4501 68.2739 26.1596 68.9948 25.5678C69.7103 24.9814 70.0707 24.2014 70.0707 23.2223C70.0707 22.2056 69.7533 21.4094 69.1239 20.8338C68.4891 20.2635 67.6445 19.7955 66.5847 19.4351C65.5357 19.08 64.4168 18.6981 63.2279 18.2946C61.2912 17.6222 59.8118 16.7614 58.7951 15.7124C57.7891 14.6688 57.2888 13.2701 57.2888 11.5163C57.2565 10.0423 57.6116 8.77273 58.3432 7.70757C59.0748 6.64779 60.07 5.82472 61.3342 5.23296C62.5931 4.64659 64.0509 4.35071 65.7025 4.35071C67.3648 4.35071 68.8334 4.65197 70.1137 5.25448C71.3887 5.84623 72.3947 6.67469 73.1263 7.75061C73.8579 8.82653 74.2453 10.1069 74.2883 11.5809H69.3821C69.366 10.7094 69.0271 9.93472 68.3708 9.2569C67.7091 8.56831 66.7999 8.22401 65.6379 8.22401C64.6319 8.19712 63.7873 8.4392 63.0988 8.95564C62.4209 9.47208 62.0874 10.2198 62.0874 11.1935C62.0874 12.0274 62.3456 12.6945 62.8621 13.1948C63.3893 13.6843 64.1101 14.0932 65.0139 14.4213C65.9177 14.7548 66.9559 15.1099 68.1341 15.4972C69.3821 15.9276 70.5118 16.4333 71.534 17.0035C72.5668 17.5791 73.3899 18.3376 74.0086 19.2845C74.6218 20.2205 74.9339 21.4255 74.9339 22.8995C74.9339 24.2229 74.5949 25.4387 73.9225 26.5577C73.2608 27.6766 72.271 28.5804 70.953 29.269C69.6457 29.9414 68.0372 30.2803 66.1328 30.2803Z" fill="#141414"/>
<path d="M78.938 29.8527V4.78384H83.5214V15.1987H94.7755V4.78384H99.3589V29.8527H94.7755V18.9214H83.5214V29.8527H78.938Z" fill="#141414"/>
<path d="M104.209 29.8527V4.78384H108.793V29.8527H104.209Z" fill="#141414"/>
<path d="M120.933 29.8527L111.767 4.78384H116.673L123.752 25.1617L130.896 4.78384H135.717L126.55 29.8527H120.933Z" fill="#141414"/>
<path d="M150.43 30.2805C147.918 30.2805 145.723 29.7371 143.846 28.6451C141.979 27.5423 140.516 26.0198 139.456 24.0832C138.391 22.1358 137.864 19.8817 137.864 17.3264C137.864 14.7765 138.391 12.5224 139.456 10.5696C140.516 8.62223 141.979 7.0998 143.846 6.00774C145.723 4.90493 147.918 4.35083 150.43 4.35083C152.91 4.35083 155.089 4.90493 156.972 6.00774C158.865 7.0998 160.334 8.62223 161.383 10.5696C162.427 12.5224 162.954 14.7765 162.954 17.3264C162.954 19.8817 162.427 22.1358 161.383 24.0832C160.334 26.0198 158.865 27.5423 156.972 28.6451C155.089 29.7371 152.91 30.2805 150.43 30.2805ZM150.43 26.1705C152.808 26.1705 154.712 25.385 156.133 23.8034C157.553 22.2272 158.263 20.07 158.263 17.3264C158.263 14.5721 157.553 12.4148 156.133 10.8494C154.712 9.27316 152.808 8.48236 150.43 8.48236C148.047 8.48236 146.137 9.27316 144.706 10.8494C143.27 12.4148 142.555 14.5721 142.555 17.3264C142.555 20.07 143.27 22.2272 144.706 23.8034C146.137 25.385 148.047 26.1705 150.43 26.1705Z" fill="#141414"/>
<path d="M166.995 29.8527V4.78384H171.579L183.371 22.4504V4.78384H187.954V29.8527H183.371L171.579 12.2292V29.8527H166.995Z" fill="#141414"/>
<path d="M199.71 29.8527L208.877 4.78384H214.042L223.209 29.8527H218.345L216.323 24.0428H206.553L204.509 29.8527H199.71ZM207.801 20.4707H215.075L211.416 10.0558L207.801 20.4707Z" fill="#141414"/>
<path d="M226.417 29.8527V4.78384H231V29.8527H226.417Z" fill="#141414"/>
</svg>
