<svg width="338" height="85" viewBox="0 0 338 85" fill="none" xmlns="http://www.w3.org/2000/svg">
<path d="M41.2631 15.0967C41.1391 15.4686 40.7672 15.7142 40.3345 15.6534C39.9625 15.5294 39.717 15.1599 39.7778 14.7272C39.9018 14.3577 40.2737 14.1098 40.7064 14.1705C41.0783 14.2945 41.3238 14.6664 41.2631 15.0967Z" fill="#2127B0"/>
<mask id="mask0_4_160" style="mask-type:luminance" maskUnits="userSpaceOnUse" x="32" y="13" width="3" height="3">
<path d="M32.0625 13H34.5517V15.2632H32.0625V13Z" fill="white"/>
</mask>
<g mask="url(#mask0_4_160)">
<path d="M34.2844 14.172C34.1604 14.6679 33.6645 14.9134 33.2318 14.7894C32.7383 14.6679 32.4904 14.172 32.6144 13.7417C32.7383 13.2482 33.2318 13.0003 33.6645 13.1243C34.1604 13.2482 34.4084 13.7417 34.2844 14.172Z" fill="#2127B0"/>
</g>
<path d="M27.5299 14.8512C27.4059 15.4055 26.8493 15.7142 26.3534 15.5902C25.7967 15.4687 25.488 14.912 25.6119 14.4185C25.7359 13.8643 26.2926 13.5556 26.7861 13.6771C27.3427 13.8011 27.6539 14.3578 27.5299 14.8512Z" fill="#2127B0"/>
<path d="M21.2181 17.0107C21.0941 17.6282 20.4742 17.9369 19.8568 17.8129C19.2369 17.6914 18.9282 17.0739 19.0522 16.4565C19.1761 15.839 19.7936 15.5303 20.4135 15.6543C20.9701 15.839 21.3396 16.4565 21.2181 17.0107Z" fill="#2127B0"/>
<path d="M15.5221 20.5275C15.3373 21.2081 14.7175 21.5776 14.0368 21.3929C13.3562 21.2081 12.9867 20.5907 13.1714 19.9124C13.3562 19.2318 13.976 18.8623 14.6567 19.047C15.2741 19.171 15.6461 19.8492 15.5221 20.5275Z" fill="#2127B0"/>
<path d="M10.7013 25.2183C10.5142 25.9597 9.77272 26.39 9.09207 26.2052C8.35065 26.0205 7.91551 25.2791 8.10269 24.6008C8.28744 23.8594 9.0313 23.4291 9.71195 23.6139C10.3926 23.7986 10.8861 24.4769 10.7013 25.2183Z" fill="#2127B0"/>
<path d="M6.9768 30.959C6.78962 31.7612 5.98499 32.1939 5.18279 32.0091C4.37816 31.8244 3.94546 31.0222 4.13021 30.2176C4.31496 29.4154 5.11959 28.9851 5.92422 29.1698C6.66565 29.3546 7.16155 30.1568 6.9768 30.959Z" fill="#2127B0"/>
<path d="M4.57242 37.6242C4.38767 38.4896 3.51984 38.9831 2.65444 38.7959C1.78904 38.6112 1.29313 37.7482 1.47788 36.8828C1.66506 36.0198 2.53046 35.5264 3.39586 35.7111C4.2637 35.8959 4.75717 36.7613 4.57242 37.6242Z" fill="#2127B0"/>
<mask id="mask1_4_160" style="mask-type:luminance" maskUnits="userSpaceOnUse" x="0" y="42" width="5" height="5">
<path d="M0 42.0231H4.04503V46.3793H0V42.0231Z" fill="white"/>
</mask>
<g mask="url(#mask1_4_160)">
<path d="M3.69543 44.7233C3.44748 45.6495 2.51887 46.2037 1.59027 45.9582C0.664092 45.7102 0.107414 44.7841 0.352936 43.8579C0.600888 42.9317 1.52949 42.3775 2.4581 42.6254C3.38427 42.8709 3.94338 43.7971 3.69543 44.7233Z" fill="#2127B0"/>
</g>
<path d="M4.50884 51.5741C4.26089 52.561 3.27151 53.1177 2.2797 52.8698C1.29032 52.6218 0.733644 51.6349 0.981596 50.6479C1.22955 49.661 2.21893 49.1043 3.20831 49.3522C4.13691 49.661 4.75436 50.6479 4.50884 51.5741Z" fill="#2127B0"/>
<path d="M6.7305 58.0525C6.48255 59.1002 5.42996 59.7177 4.37981 59.4722C3.32723 59.2242 2.70978 58.1741 2.9553 57.1263C3.20326 56.0762 4.25584 55.4587 5.30599 55.7067C6.35857 55.9522 7.03922 57.0024 6.7305 58.0525Z" fill="#2127B0"/>
<path d="M10.3267 63.9144C10.018 65.0253 8.90463 65.7036 7.79127 65.3948C6.67548 65.0861 5.99483 63.9752 6.30599 62.8643C6.61471 61.7533 7.72807 61.0751 8.84142 61.3838C9.95478 61.6294 10.6354 62.8035 10.3267 63.9144Z" fill="#2127B0"/>
<path d="M15.1495 68.8527C14.8408 70.0244 13.6642 70.7026 12.4901 70.4571C11.3135 70.1484 10.6329 68.9742 10.8808 67.8025C11.1895 66.6308 12.3661 65.9502 13.5427 66.1981C14.7168 66.5069 15.3974 67.6786 15.1495 68.8527Z" fill="#2127B0"/>
<path d="M20.9565 72.6814C20.6477 73.9138 19.408 74.6553 18.1706 74.3465C16.9333 74.0378 16.1919 72.8029 16.5006 71.5704C16.8118 70.3355 18.0491 69.5941 19.2864 69.9028C20.5238 70.2116 21.2652 71.4465 20.9565 72.6814Z" fill="#2127B0"/>
<path d="M27.769 75.2706C27.4603 76.5663 26.099 77.3685 24.8009 76.999C23.5003 76.6902 22.6957 75.3314 23.0676 74.0357C23.3764 72.74 24.7377 71.9378 26.0382 72.3073C27.2755 72.616 28.0802 73.9749 27.769 75.2706Z" fill="#2127B0"/>
<path d="M34.9486 76.1968C34.5767 77.5532 33.2154 78.3554 31.8541 78.0467C30.4928 77.6772 29.6881 76.3207 29.9993 74.9619C30.3688 73.6054 31.7301 72.8008 33.0914 73.1095C34.4527 73.4814 35.3205 74.8379 34.9486 76.1968Z" fill="#2127B0"/>
<path d="M41.9328 75.5794C41.5609 76.999 40.1388 77.862 38.7143 77.4925C37.2922 77.123 36.4268 75.7034 36.7963 74.2837C37.1682 72.8641 38.5927 71.9987 40.0148 72.3706C41.4369 72.7401 42.3047 74.1597 41.9328 75.5794Z" fill="#2127B0"/>
<path d="M48.5056 73.4833C48.1337 74.9637 46.5876 75.8899 45.1023 75.5204C43.617 75.1485 42.6884 73.6073 43.0604 72.1244C43.4323 70.644 44.9784 69.7178 46.4636 70.0873C48.0097 70.4593 48.8775 72.0005 48.5056 73.4833Z" fill="#2127B0"/>
<path d="M54.4306 70.0864C54.0587 71.63 52.4519 72.5562 50.9034 72.1867C49.3573 71.8148 48.4287 70.2104 48.8006 68.6668C49.1726 67.1256 50.7818 66.1994 52.3279 66.5689C53.8739 66.9408 54.8025 68.482 54.4306 70.0864Z" fill="#2127B0"/>
<path d="M59.458 65.459C59.0253 67.0634 57.416 68.0528 55.8068 67.6201C54.1975 67.1874 53.2081 65.583 53.6408 63.9786C54.0735 62.3742 55.6828 61.3873 57.2921 61.8175C58.9013 62.1894 59.8907 63.7938 59.458 65.459Z" fill="#2127B0"/>
<path d="M63.4052 59.7183C62.9725 61.3859 61.2392 62.4336 59.5692 62.0009C57.8992 61.5706 56.8466 59.8423 57.2793 58.1747C57.712 56.5095 59.4452 55.4594 61.1153 55.8921C62.8485 56.3248 63.8379 58.0531 63.4052 59.7183Z" fill="#2127B0"/>
<path d="M66.0699 53.1159C65.6372 54.8418 63.8432 55.8919 62.11 55.4592C60.3792 55.029 59.3266 53.2374 59.7593 51.509C60.192 49.7831 61.986 48.7329 63.7193 49.1656C65.4525 49.5959 66.5026 51.3875 66.0699 53.1159Z" fill="#2127B0"/>
<path d="M37.053 20.2825C36.9922 20.5912 36.6835 20.7759 36.3724 20.652C36.0636 20.5912 35.8789 20.2825 36.0029 19.9737C36.0636 19.665 36.3724 19.4803 36.6835 19.6042C36.929 19.665 37.1162 19.9737 37.053 20.2825Z" fill="#2127B0"/>
<path d="M32.0468 19.6027C31.9836 19.9115 31.6117 20.157 31.303 20.033C30.9942 19.9722 30.7463 19.6027 30.8703 19.294C30.9335 18.9853 31.303 18.7373 31.6117 18.8613C31.9228 18.9221 32.1076 19.294 32.0468 19.6027Z" fill="#2127B0"/>
<path d="M27.1445 20.0966C27.0206 20.4661 26.6486 20.7141 26.2791 20.5901C25.9072 20.4661 25.6593 20.0966 25.7832 19.7247C25.9072 19.3552 26.2791 19.1097 26.6486 19.2312C27.0206 19.3552 27.2685 19.7247 27.1445 20.0966Z" fill="#2127B0"/>
<path d="M22.5775 21.7006C22.4535 22.1333 22.0184 22.3788 21.5857 22.2548C21.153 22.1333 20.905 21.7006 21.029 21.2679C21.153 20.8352 21.5857 20.5897 22.0184 20.7136C22.4535 20.8352 22.699 21.2679 22.5775 21.7006Z" fill="#2127B0"/>
<path d="M18.4967 24.1685C18.3728 24.6644 17.8769 24.91 17.4442 24.786C16.9483 24.6644 16.7027 24.1685 16.8267 23.7383C16.9483 23.2448 17.4442 22.9968 17.8769 23.1208C18.3096 23.2448 18.5575 23.7383 18.4967 24.1685Z" fill="#2127B0"/>
<path d="M14.965 27.5652C14.841 28.0587 14.2843 28.4282 13.7884 28.2434C13.2949 28.1195 12.923 27.5652 13.1078 27.0718C13.2317 26.5783 13.7884 26.2064 14.2843 26.3911C14.7802 26.5151 15.089 27.0718 14.965 27.5652Z" fill="#2127B0"/>
<path d="M12.3126 31.7597C12.1886 32.3164 11.5687 32.6859 11.012 32.5012C10.4553 32.3772 10.0834 31.7597 10.2706 31.2055C10.3946 30.6488 11.012 30.2793 11.5687 30.4641C12.0646 30.588 12.4341 31.1423 12.3126 31.7597Z" fill="#2127B0"/>
<path d="M10.5634 36.5741C10.3786 37.1916 9.75875 37.5635 9.13887 37.3787C8.52142 37.1916 8.14949 36.5741 8.33667 35.9591C8.52142 35.3416 9.13887 34.9697 9.75875 35.1569C10.3154 35.3416 10.6874 35.9591 10.5634 36.5741Z" fill="#2127B0"/>
<path d="M9.95061 41.697C9.76586 42.3752 9.0852 42.7447 8.46775 42.5599C7.7871 42.3752 7.41517 41.697 7.59992 41.0795C7.7871 40.4013 8.46775 40.0294 9.0852 40.2141C9.70509 40.3381 10.1378 41.0163 9.95061 41.697Z" fill="#2127B0"/>
<path d="M10.5116 46.6352C10.3268 47.3135 9.5854 47.7462 8.90474 47.5614C8.22409 47.3742 7.79139 46.6352 7.97614 45.957C8.16089 45.2764 8.90474 44.8461 9.5854 45.0308C10.2661 45.2156 10.6988 45.957 10.5116 46.6352Z" fill="#2127B0"/>
<path d="M12.1258 51.3254C11.941 52.0668 11.1972 52.5603 10.395 52.3755C9.65113 52.1908 9.15522 51.4493 9.3424 50.6471C9.52715 49.9057 10.271 49.4122 11.0732 49.597C11.8778 49.7842 12.313 50.5864 12.1258 51.3254Z" fill="#2127B0"/>
<path d="M14.711 55.5238C14.5262 56.326 13.7216 56.8195 12.917 56.6347C12.1123 56.45 11.6189 55.6453 11.8036 54.8431C11.9884 54.0409 12.793 53.5475 13.5976 53.7322C14.463 53.9194 14.8982 54.7216 14.711 55.5238Z" fill="#2127B0"/>
<path d="M18.1749 59.1024C17.9901 59.9678 17.1247 60.4613 16.2569 60.2765C15.3915 60.0894 14.898 59.2264 15.0827 58.3634C15.2675 57.498 16.1353 57.0045 17.0007 57.1893C17.8661 57.4372 18.4228 58.3002 18.1749 59.1024Z" fill="#2127B0"/>
<path d="M22.3958 61.8779C22.1478 62.7409 21.2824 63.2975 20.3538 63.1104C19.4884 62.8648 18.9317 61.9994 19.1165 61.0757C19.3644 60.2103 20.2298 59.656 21.1584 59.8408C22.087 60.0863 22.6437 61.0125 22.3958 61.8779Z" fill="#2127B0"/>
<path d="M27.335 63.7311C27.0895 64.6573 26.1609 65.214 25.2323 65.0292C24.3037 64.7813 23.747 63.8551 23.9318 62.9289C24.1797 62.0052 25.1083 61.4485 26.0369 61.6333C26.9655 61.818 27.5222 62.8074 27.335 63.7311Z" fill="#2127B0"/>
<path d="M32.5306 64.4704C32.2827 65.4574 31.2933 66.0748 30.3039 65.8293C29.3146 65.5814 28.6947 64.5944 28.9426 63.6075C29.1906 62.6181 30.18 62.0006 31.1693 62.2486C32.1611 62.4965 32.7786 63.4835 32.5306 64.4704Z" fill="#2127B0"/>
<path d="M37.5531 63.9754C37.3051 65.0255 36.2525 65.6406 35.2024 65.395C34.1498 65.1471 33.5299 64.0994 33.7779 63.0492C34.0258 62.0015 35.0784 61.3841 36.1285 61.6296C37.1811 61.9383 37.801 62.9884 37.5531 63.9754Z" fill="#2127B0"/>
<path d="M42.3206 62.4964C42.0726 63.5441 40.9593 64.2223 39.8459 63.9768C38.7933 63.7289 38.1127 62.6179 38.3606 61.507C38.6086 60.4593 39.7219 59.7811 40.8353 60.0266C41.9487 60.3353 42.5661 61.3855 42.3206 62.4964Z" fill="#2127B0"/>
<path d="M46.5867 59.9662C46.278 61.0771 45.1622 61.7553 44.0489 61.5074C42.9355 61.1986 42.2549 60.0877 42.5028 58.9768C42.8115 57.8659 43.9249 57.1877 45.0407 57.4356C46.2148 57.7443 46.8955 58.8553 46.5867 59.9662Z" fill="#2127B0"/>
<path d="M50.2198 56.6326C49.9111 57.8043 48.7369 58.4825 47.5604 58.237C46.3838 57.9282 45.7032 56.7541 45.9511 55.5824C46.2623 54.4107 47.4364 53.7301 48.613 53.978C49.7871 54.2868 50.531 55.4584 50.2198 56.6326Z" fill="#2127B0"/>
<path d="M53.0815 52.5588C52.7728 53.7937 51.5355 54.5327 50.2981 54.2264C49.0608 53.9177 48.317 52.6828 48.6281 51.4479C48.9368 50.213 50.1742 49.474 51.4115 49.7827C52.6488 50.0914 53.3927 51.3239 53.0815 52.5588Z" fill="#2127B0"/>
<path d="M54.9923 47.7484C54.6836 48.9833 53.3855 49.7855 52.1457 49.4768C50.9084 49.168 50.1062 47.8724 50.4149 46.6375C50.7236 45.4026 52.0242 44.6004 53.2615 44.9091C54.5596 45.2178 55.3035 46.5135 54.9923 47.7484Z" fill="#2127B0"/>
<mask id="mask2_4_160" style="mask-type:luminance" maskUnits="userSpaceOnUse" x="58" y="78" width="3" height="3">
<path d="M58.8096 78.1171H60.6765V80.2101H58.8096V78.1171Z" fill="white"/>
</mask>
<g mask="url(#mask2_4_160)">
<path d="M58.9072 79.4099C58.9072 78.9772 59.2767 78.6684 59.7119 78.6684C60.1446 78.6684 60.4533 79.0404 60.4533 79.4706C60.4533 79.9033 60.0814 80.2121 59.6487 80.2121C59.216 80.1513 58.9072 79.7794 58.9072 79.4099Z" fill="#2127B0"/>
</g>
<path d="M65.8884 78.79C65.8884 78.2965 66.3211 77.927 66.817 77.927C67.3105 77.927 67.6824 78.3573 67.6824 78.8532C67.6824 79.3467 67.2497 79.7161 66.7538 79.7161C66.2579 79.7161 65.8884 79.2834 65.8884 78.79Z" fill="#2127B0"/>
<path d="M72.3232 76.6908C72.3232 76.1341 72.8167 75.7038 73.3734 75.7646C73.9325 75.7646 74.3652 76.2581 74.302 76.8147C74.302 77.369 73.8085 77.8017 73.2518 77.7409C72.7559 77.7409 72.3232 77.245 72.3232 76.6908Z" fill="#2127B0"/>
<path d="M78.083 73.2979C78.083 72.6804 78.6397 72.187 79.2571 72.2477C79.877 72.3085 80.3729 72.802 80.3097 73.4194C80.3097 74.0369 79.753 74.5304 79.1332 74.4696C78.5765 74.4088 78.083 73.9129 78.083 73.2979Z" fill="#2127B0"/>
<path d="M82.8984 68.6673C82.8984 67.9891 83.5183 67.4348 84.199 67.4956C84.8772 67.4956 85.4363 68.113 85.3731 68.7913C85.3731 69.4719 84.7556 70.0262 84.075 69.9654C83.3943 69.9022 82.8984 69.3479 82.8984 68.6673Z" fill="#2127B0"/>
<path d="M86.6201 63.0503C86.6201 62.3089 87.3008 61.7547 88.0446 61.7547C88.7861 61.7547 89.3427 62.3721 89.3427 63.1743C89.3427 63.9157 88.7229 64.47 87.9207 64.47C87.1768 64.4092 86.6201 63.7918 86.6201 63.0503Z" fill="#2127B0"/>
<path d="M89.0176 56.6348C89.0176 55.8326 89.6982 55.2151 90.5636 55.2151C91.3683 55.2151 91.9857 55.8934 91.9857 56.7563C91.9857 57.561 91.3051 58.176 90.4397 58.176C89.635 58.176 89.0176 57.4978 89.0176 56.6348Z" fill="#2127B0"/>
<mask id="mask3_4_160" style="mask-type:luminance" maskUnits="userSpaceOnUse" x="89" y="47" width="5" height="5">
<path d="M89.9229 47.6245H93.3456V51.3584H89.9229V47.6245Z" fill="white"/>
</mask>
<g mask="url(#mask3_4_160)">
<path d="M90.0214 49.5994C90.0214 48.7364 90.7628 48.0582 91.6914 48.0582C92.5568 48.0582 93.2374 48.7972 93.2374 49.7234C93.2374 50.5888 92.496 51.267 91.5674 51.267C90.6388 51.2062 89.9606 50.5256 90.0214 49.5994Z" fill="#2127B0"/>
</g>
<path d="M89.2705 42.5614C89.3313 41.6352 90.0727 40.8962 91.0645 40.8962C91.9907 40.957 92.7345 41.6984 92.7345 42.6853C92.6713 43.6115 91.9299 44.3505 90.9405 44.3505C90.0119 44.2897 89.2705 43.4875 89.2705 42.5614Z" fill="#2127B0"/>
<path d="M87.105 35.9602C87.1658 34.9709 87.9704 34.1687 89.023 34.1687C90.0124 34.2319 90.817 35.0341 90.817 36.0818C90.7538 37.0712 89.9516 37.8734 88.8991 37.8734C87.8465 37.8102 87.0418 36.9472 87.105 35.9602Z" fill="#2127B0"/>
<path d="M83.5111 30.0954C83.5718 29.0452 84.4372 28.1823 85.5506 28.243C86.6032 28.3038 87.4686 29.1692 87.4078 30.2801C87.347 31.3279 86.4792 32.1933 85.3658 32.1325C84.3133 32.0693 83.4479 31.2063 83.5111 30.0954Z" fill="#2127B0"/>
<path d="M78.7568 25.1571C78.8176 24.0461 79.7462 23.12 80.9228 23.1807C82.0969 23.2439 82.9623 24.1677 82.9015 25.3418C82.8408 26.4527 81.9122 27.3789 80.7356 27.3157C79.6222 27.2549 78.7568 26.3287 78.7568 25.1571Z" fill="#2127B0"/>
<path d="M73.0585 21.331C73.1217 20.0961 74.1111 19.1699 75.3484 19.2307C76.5857 19.2939 77.5143 20.2808 77.4511 21.5157C77.3904 22.7482 76.401 23.6743 75.1636 23.6136C73.9263 23.5528 72.9977 22.5634 73.0585 21.331Z" fill="#2127B0"/>
<path d="M66.4998 18.8016C66.563 17.5035 67.6132 16.5166 68.9137 16.5798C70.2118 16.6405 71.2036 17.6907 71.1404 18.9864C71.0796 20.282 70.0271 21.269 68.729 21.2082C67.4916 21.145 66.439 20.0973 66.4998 18.8016Z" fill="#2127B0"/>
<path d="M59.3299 17.7517C59.3906 16.3929 60.504 15.3451 61.8653 15.4059C63.2266 15.4691 64.2792 16.58 64.2184 17.9365C64.1552 19.2954 63.0418 20.3431 61.6805 20.2823C60.3192 20.2215 59.2666 19.1106 59.3299 17.7517Z" fill="#2127B0"/>
<path d="M52.0947 18.3058C52.1555 16.8886 53.3321 15.7776 54.7541 15.8384C56.1786 15.8992 57.292 17.0733 57.2312 18.493C57.168 19.9126 55.9915 21.0235 54.5694 20.9603C53.1473 20.8996 52.0947 19.7254 52.0947 18.3058Z" fill="#2127B0"/>
<path d="M45.4102 20.4056C45.4734 18.9228 46.7108 17.8119 48.196 17.8119C49.6789 17.8751 50.7947 19.11 50.7947 20.5904C50.7315 22.0708 49.4941 23.1817 48.0089 23.1817C46.5236 23.121 45.3494 21.8861 45.4102 20.4056Z" fill="#2127B0"/>
<path d="M39.4607 23.8602C39.5215 22.319 40.822 21.1449 42.368 21.1449C43.9141 21.2081 45.0907 22.5038 45.0907 24.0474C45.0299 25.5886 43.7294 26.7627 42.1833 26.7627C40.574 26.6387 39.3975 25.4038 39.4607 23.8602Z" fill="#2127B0"/>
<path d="M34.3939 28.4277C34.4547 26.8233 35.816 25.5884 37.4253 25.6516C39.0345 25.7123 40.2718 27.0712 40.2086 28.6756C40.1479 30.28 38.7866 31.5149 37.1773 31.4517C35.568 31.3909 34.3307 30.032 34.3939 28.4277Z" fill="#2127B0"/>
<path d="M30.4404 34.045C30.5012 32.3774 31.9257 31.0817 33.5958 31.1425C35.2658 31.2057 36.5663 32.6254 36.5031 34.2905C36.4423 35.9581 35.0178 37.2538 33.3478 37.1906C31.6778 37.1298 30.3772 35.7102 30.4404 34.045Z" fill="#2127B0"/>
<path d="M27.7695 40.4627C27.8327 38.7343 29.318 37.3779 31.0488 37.4387C32.7821 37.4994 34.1434 38.9823 34.0826 40.7082C34.0194 42.4366 32.5341 43.7955 30.8033 43.7347C29.0701 43.6107 27.7088 42.1911 27.7695 40.4627Z" fill="#2127B0"/>
<path d="M26.5931 47.4379C26.6539 45.6488 28.1391 44.2291 29.9964 44.2899C31.7904 44.3507 33.2124 45.8335 33.1517 47.6834C33.0885 49.475 31.6032 50.8947 29.7484 50.8315C27.9544 50.7707 26.5299 49.2878 26.5931 47.4379Z" fill="#2127B0"/>
<path d="M61.9193 73.4183C61.9193 73.1096 62.1673 72.8641 62.476 72.9249C62.7847 72.9249 63.0327 73.1728 62.9719 73.4815C62.9719 73.7903 62.724 74.0358 62.4128 73.975C62.1041 73.975 61.8561 73.7271 61.9193 73.4183Z" fill="#2127B0"/>
<path d="M66.9395 73.0519C66.9395 72.6824 67.2506 72.4344 67.6201 72.4344C67.992 72.4344 68.24 72.7432 68.24 73.1127C68.24 73.4846 67.9313 73.7301 67.6201 73.7301C67.1874 73.6693 66.9395 73.3606 66.9395 73.0519Z" fill="#2127B0"/>
<path d="M71.6322 71.5044C71.6322 71.1349 72.0041 70.8262 72.3736 70.8262C72.7455 70.8262 73.0543 71.1957 73.0543 71.5676C73.0543 71.9371 72.6823 72.2459 72.3128 72.2459C71.8801 72.2459 71.569 71.9371 71.6322 71.5044Z" fill="#2127B0"/>
<path d="M75.7927 69.0376C75.7927 68.6049 76.1646 68.2354 76.5973 68.2354C77.03 68.2354 77.4019 68.6049 77.4019 69.0376C77.4019 69.4679 77.03 69.8398 76.5973 69.8398C76.1014 69.8398 75.7319 69.4679 75.7927 69.0376Z" fill="#2127B0"/>
<path d="M79.2402 65.7063C79.2402 65.2129 79.6754 64.8409 80.1688 64.8409C80.6647 64.8409 81.0342 65.2736 81.0342 65.7671C81.0342 66.2606 80.6015 66.6325 80.1081 66.6325C79.6122 66.5693 79.2402 66.1998 79.2402 65.7063Z" fill="#2127B0"/>
<path d="M81.9102 61.6339C81.9102 61.0797 82.4036 60.647 82.8995 60.7077C83.4562 60.7077 83.8889 61.2012 83.8281 61.6971C83.8281 62.2514 83.3322 62.6841 82.8388 62.6209C82.3429 62.6209 81.9102 62.1906 81.9102 61.6339Z" fill="#2127B0"/>
<path d="M83.7 57.0053C83.7 56.4511 84.1959 55.9552 84.8134 55.9552C85.3701 55.9552 85.866 56.4511 85.866 57.0661C85.866 57.6228 85.3701 58.1162 84.7526 58.1162C84.1327 58.1162 83.6368 57.6228 83.7 57.0053Z" fill="#2127B0"/>
<path d="M84.3931 51.9425C84.3931 51.3251 84.9498 50.8316 85.5673 50.8316C86.1871 50.8316 86.683 51.3883 86.683 52.0057C86.683 52.6208 86.1264 53.1167 85.5065 53.1167C84.8258 53.1167 84.3299 52.56 84.3931 51.9425Z" fill="#2127B0"/>
<path d="M83.8874 46.8209C83.8874 46.1427 84.5072 45.586 85.1879 45.6492C85.8685 45.6492 86.4252 46.2643 86.362 46.9449C86.362 47.6231 85.7446 48.1774 85.0639 48.1166C84.3833 48.0558 83.8266 47.4992 83.8874 46.8209Z" fill="#2127B0"/>
<path d="M82.291 42.0667C82.291 41.3253 82.9085 40.7711 83.6499 40.7711C84.3937 40.7711 84.9504 41.3885 84.9504 42.1275C84.9504 42.8689 84.3305 43.4256 83.5891 43.4256C82.7845 43.4256 82.2278 42.8082 82.291 42.0667Z" fill="#2127B0"/>
<path d="M79.6826 37.8732C79.6826 37.071 80.3633 36.5143 81.1655 36.5143C81.9701 36.5143 82.5268 37.1925 82.5268 37.9947C82.5268 38.7969 81.8461 39.3536 81.0415 39.3536C80.2393 39.2928 79.6826 38.6122 79.6826 37.8732Z" fill="#2127B0"/>
<path d="M76.2775 34.2908C76.2775 33.4886 77.0189 32.8104 77.8236 32.8712C78.6282 32.8712 79.3089 33.6126 79.2456 34.4148C79.2456 35.217 78.5042 35.8952 77.6996 35.8344C76.895 35.7712 76.2143 35.093 76.2775 34.2908Z" fill="#2127B0"/>
<path d="M72.1337 31.5162C72.1337 30.6508 72.8775 29.9726 73.7429 29.9726C74.6083 29.9726 75.289 30.714 75.289 31.577C75.289 32.44 74.5475 33.1206 73.6821 33.1206C72.7535 33.1206 72.0729 32.3792 72.1337 31.5162Z" fill="#2127B0"/>
<path d="M67.3623 29.6629C67.4231 28.7367 68.1645 27.9953 69.0931 28.0585C70.0217 28.1193 70.7631 28.8607 70.7024 29.7869C70.7024 30.713 69.8977 31.452 68.9691 31.3913C68.1037 31.328 67.3623 30.5891 67.3623 29.6629Z" fill="#2127B0"/>
<path d="M62.232 28.9213C62.2952 27.9343 63.0974 27.1929 64.026 27.2561C65.0154 27.3169 65.7592 28.1191 65.696 29.0452C65.6353 30.0322 64.8306 30.7736 63.902 30.7128C62.9127 30.6496 62.1712 29.8474 62.232 28.9213Z" fill="#2127B0"/>
<path d="M56.9746 29.2942C57.0354 28.3048 57.84 27.5026 58.8926 27.5026C59.882 27.5658 60.6866 28.368 60.6866 29.4157C60.6234 30.4051 59.8212 31.2073 58.7686 31.2073C57.7792 31.1441 56.9746 30.3419 56.9746 29.2942Z" fill="#2127B0"/>
<path d="M52.1388 30.8346C52.202 29.7869 53.0674 28.9215 54.1199 28.9847C55.1725 29.0455 56.0379 29.9109 55.9747 30.9586C55.914 32.0087 55.0486 32.8717 53.996 32.8109C52.9434 32.7477 52.078 31.8848 52.1388 30.8346Z" fill="#2127B0"/>
<path d="M47.8271 33.3028C47.8879 32.1919 48.8165 31.3265 49.9299 31.3897C51.0432 31.4504 51.9111 32.3766 51.8479 33.4875C51.7871 34.5985 50.8585 35.4614 49.7451 35.4007C48.6926 35.3399 47.8271 34.4137 47.8271 33.3028Z" fill="#2127B0"/>
<path d="M44.1698 36.637C44.233 35.4629 45.1592 34.5999 46.3358 34.5999C47.5123 34.6607 48.3777 35.5869 48.3777 36.761C48.3145 37.9327 47.3883 38.7957 46.2118 38.7957C45.0376 38.7349 44.109 37.8087 44.1698 36.637Z" fill="#2127B0"/>
<path d="M41.3309 40.6486C41.3941 39.4137 42.3835 38.4899 43.6209 38.5507C44.8582 38.6115 45.7868 39.6009 45.7236 40.8333C45.6628 42.0682 44.6734 42.9944 43.4361 42.9312C42.1988 42.8704 41.2702 41.8835 41.3309 40.6486Z" fill="#2127B0"/>
<path d="M39.3974 45.2762C39.4606 44.0413 40.5132 43.0544 41.7505 43.0544C42.9879 43.1176 43.9773 44.1653 43.9773 45.4002C43.9141 46.6351 42.8639 47.6221 41.6266 47.6221C40.326 47.6221 39.3367 46.5719 39.3974 45.2762Z" fill="#2127B0"/>
<path d="M38.5347 50.3982C38.5979 49.1025 39.6481 48.0548 40.9486 48.1155C42.2467 48.1763 43.2993 49.2265 43.2361 50.5221C43.1753 51.8178 42.1228 52.868 40.8247 52.8072C39.5241 52.744 38.474 51.6963 38.5347 50.3982Z" fill="#2127B0"/>
<rect x="107.576" y="30.9087" width="4.91735" height="23.8843" rx="2.45868" fill="#2614BA"/>
<rect x="121.635" y="23.1815" width="4.91735" height="39.3388" rx="2.45868" fill="#271CBE"/>
<rect x="135.674" y="23.1815" width="4.91735" height="39.3388" rx="2.45868" fill="#2127B0"/>
<rect x="149.717" y="23.1815" width="4.91735" height="39.3388" rx="2.45868" fill="#2435C9"/>
<rect x="163.775" y="29.5042" width="4.91735" height="26.6942" rx="2.45868" fill="#2042CA"/>
<rect x="177.833" y="29.5042" width="4.91735" height="26.6942" rx="2.45868" fill="#234AD2"/>
<rect x="191.871" y="21.0747" width="4.91735" height="42.8513" rx="2.45868" fill="#2157CB"/>
<rect x="219.975" y="37.9336" width="4.91735" height="9.13223" rx="2.45868" fill="#1E7ADC"/>
<rect x="248.068" y="37.9336" width="4.91735" height="9.13223" rx="2.45868" fill="#1C93E4"/>
<rect x="276.174" y="37.9336" width="4.91735" height="9.13223" rx="2.45868" fill="#18ACEF"/>
<rect x="332.373" y="37.9336" width="4.91735" height="9.13223" rx="2.45868" fill="#16D3F7"/>
<rect x="290.232" y="37.9336" width="4.91735" height="9.13223" rx="2.45868" fill="#28AFE5"/>
<rect x="262.115" y="35.1241" width="4.91735" height="15.4546" rx="2.45868" fill="#199BE9"/>
<rect x="304.262" y="33.0166" width="4.91735" height="19.6694" rx="2.45868" fill="#2EBEE6"/>
<rect x="318.315" y="36.5291" width="4.91735" height="12.6446" rx="2.45868" fill="#2BC5E7"/>
<rect x="234.033" y="33.0166" width="4.91735" height="19.6694" rx="2.45868" fill="#1C85E4"/>
<rect x="205.916" width="4.91735" height="85" rx="2.45868" fill="#2563C7"/>
</svg>
